<svg preserveAspectRatio="none" width="100%" height="100%" overflow="visible" style="display: block;" viewBox="0 0 16 16" fill="none" xmlns="http://www.w3.org/2000/svg">
<g id="fluent:slide-text-32-regular">
<path id="Vector" d="M12.75 2C13.3467 2 13.919 2.23705 14.341 2.65901C14.7629 3.08097 15 3.65326 15 4.25V11.75C15 12.3467 14.7629 12.919 14.341 13.341C13.919 13.7629 13.3467 14 12.75 14H3.25C2.65326 14 2.08097 13.7629 1.65901 13.341C1.23705 12.919 1 12.3467 1 11.75V4.25C1 3.65326 1.23705 3.08097 1.65901 2.65901C2.08097 2.23705 2.65326 2 3.25 2H12.75ZM3.25 3C2.91848 3 2.60054 3.1317 2.36612 3.36612C2.1317 3.60054 2 3.91848 2 4.25V11.75C2 12.0815 2.1317 12.3995 2.36612 12.6339C2.60054 12.8683 2.91848 13 3.25 13H12.75C13.0815 13 13.3995 12.8683 13.6339 12.6339C13.8683 12.3995 14 12.0815 14 11.75V4.25C14 3.91848 13.8683 3.60054 13.6339 3.36612C13.3995 3.1317 13.0815 3 12.75 3H3.25ZM9.5 10C9.63261 10 9.75979 10.0527 9.85355 10.1464C9.94732 10.2402 10 10.3674 10 10.5C10 10.6326 9.94732 10.7598 9.85355 10.8536C9.75979 10.9473 9.63261 11 9.5 11H4.5C4.36739 11 4.24021 10.9473 4.14645 10.8536C4.05268 10.7598 4 10.6326 4 10.5C4 10.3674 4.05268 10.2402 4.14645 10.1464C4.24021 10.0527 4.36739 10 4.5 10H9.5ZM11 7.5C11.1326 7.5 11.2598 7.55268 11.3536 7.64645C11.4473 7.74021 11.5 7.86739 11.5 8C11.5 8.13261 11.4473 8.25979 11.3536 8.35355C11.2598 8.44732 11.1326 8.5 11 8.5H4.5C4.36739 8.5 4.24021 8.44732 4.14645 8.35355C4.05268 8.25979 4 8.13261 4 8C4 7.86739 4.05268 7.74021 4.14645 7.64645C4.24021 7.55268 4.36739 7.5 4.5 7.5H11ZM8 5C8.13261 5 8.25979 5.05268 8.35355 5.14645C8.44732 5.24021 8.5 5.36739 8.5 5.5C8.5 5.63261 8.44732 5.75979 8.35355 5.85355C8.25979 5.94732 8.13261 6 8 6H4.5C4.36739 6 4.24021 5.94732 4.14645 5.85355C4.05268 5.75979 4 5.63261 4 5.5C4 5.36739 4.05268 5.24021 4.14645 5.14645C4.24021 5.05268 4.36739 5 4.5 5H8Z" fill="var(--fill-0, #25144A)"/>
</g>
</svg>
