<svg preserveAspectRatio="none" width="100%" height="100%" overflow="visible" style="display: block;" viewBox="0 0 17.6707 17.7282" fill="none" xmlns="http://www.w3.org/2000/svg">
<g id="Group">
<path id="Vector" d="M8.02857 2.27105H2.88571C2.27951 2.27105 1.69812 2.51187 1.26947 2.94052C0.840816 3.36918 0.6 3.95056 0.6 4.55677V14.8425C0.6 15.4487 0.840816 16.0301 1.26947 16.4587C1.69812 16.8874 2.27951 17.1282 2.88571 17.1282H14.3143C14.9205 17.1282 15.5019 16.8874 15.9305 16.4587C16.3592 16.0301 16.6 15.4487 16.6 14.8425V9.69962" stroke="var(--stroke-0, black)" stroke-width="1.2" stroke-linecap="round" stroke-linejoin="round"/>
<path id="Vector_2" d="M14.3143 3.41391L15.4034 4.55677M16.6 1.09048C16.9052 1.40523 17.0743 1.82747 17.0707 2.26589C17.067 2.70432 16.891 3.12369 16.5806 3.43334L8.6 11.4139L5.17143 12.5568L6.31429 9.1282L14.2994 1.07563C14.5803 0.792974 14.9559 0.6244 15.3537 0.602449C15.7516 0.580499 16.1435 0.706729 16.4537 0.956768L16.6 1.09048Z" stroke="var(--stroke-0, black)" stroke-width="1.2" stroke-linecap="round" stroke-linejoin="round"/>
</g>
</svg>
