<svg preserveAspectRatio="none" width="100%" height="100%" overflow="visible" style="display: block;" viewBox="0 0 20 20" fill="none" xmlns="http://www.w3.org/2000/svg">
<g id="hugeicons:ai-scan">
<path id="Vector" d="M2.08333 13.75C2.08333 14.525 2.08333 14.9117 2.1475 15.2333C2.2761 15.88 2.59358 16.474 3.05979 16.9402C3.526 17.4064 4.12 17.7239 4.76667 17.8525C5.08833 17.9167 5.475 17.9167 6.25 17.9167M17.9167 13.75C17.9167 14.525 17.9167 14.9117 17.8525 15.2333C17.7239 15.88 17.4064 16.474 16.9402 16.9402C16.474 17.4064 15.88 17.7239 15.2333 17.8525C14.9117 17.9167 14.525 17.9167 13.75 17.9167M17.9167 6.25C17.9167 5.475 17.9167 5.08833 17.8525 4.76667C17.7239 4.12 17.4064 3.526 16.9402 3.05979C16.474 2.59358 15.88 2.2761 15.2333 2.1475C14.9117 2.08333 14.525 2.08333 13.75 2.08333M2.08333 6.25C2.08333 5.475 2.08333 5.08833 2.1475 4.76667C2.2761 4.12 2.59358 3.526 3.05979 3.05979C3.526 2.59358 4.12 2.2761 4.76667 2.1475C5.08833 2.08333 5.475 2.08333 6.25 2.08333M10 7.08333V5.41667M8.33333 9.58333V10M11.6667 9.58333V10M9.16667 7.08333H10.8333C12.405 7.08333 13.19 7.08333 13.6783 7.57167C14.1667 8.06 14.1667 8.845 14.1667 10.4167C14.1667 11.9883 14.1667 12.7733 13.6783 13.2617C13.19 13.75 12.405 13.75 10.8333 13.75H9.16667C7.595 13.75 6.81 13.75 6.32167 13.2617C5.83333 12.7733 5.83333 11.9883 5.83333 10.4167C5.83333 8.845 5.83333 8.06 6.32167 7.57167C6.81 7.08333 7.595 7.08333 9.16667 7.08333Z" stroke="var(--stroke-0, #0B0825)" stroke-width="1.2" stroke-linecap="round" stroke-linejoin="round"/>
</g>
</svg>
